<svg width="27" height="29" viewBox="0 0 27 29" fill="none" xmlns="http://www.w3.org/2000/svg">
<path d="M13.9823 0.830067C13.8926 0.737204 13.786 0.663527 13.6687 0.613256C13.5513 0.562986 13.4255 0.537109 13.2984 0.537109C13.1713 0.537109 13.0455 0.562986 12.9282 0.613256C12.8108 0.663527 12.7042 0.737204 12.6145 0.830067L1.02231 12.7962C0.932662 12.8889 0.861606 12.999 0.813205 13.1202C0.764805 13.2413 0.740009 13.3711 0.740236 13.5022V27.4626C0.740236 27.7271 0.842012 27.9807 1.02317 28.1677C1.20434 28.3547 1.45005 28.4598 1.70625 28.4598H10.4004C10.6566 28.4598 10.9023 28.3547 11.0834 28.1677C11.2646 27.9807 11.3664 27.7271 11.3664 27.4626V19.4852H15.2304V27.4626C15.2304 27.7271 15.3322 27.9807 15.5134 28.1677C15.6945 28.3547 15.9402 28.4598 16.1965 28.4598H24.8906C25.1468 28.4598 25.3925 28.3547 25.5736 28.1677C25.7548 27.9807 25.8566 27.7271 25.8566 27.4626V13.5022C25.8568 13.3711 25.832 13.2413 25.7836 13.1202C25.7352 12.999 25.6642 12.8889 25.5745 12.7962L22.9585 10.0978V3.53042C22.9585 3.26595 22.8568 3.01231 22.6756 2.82531C22.4944 2.6383 22.2487 2.53324 21.9925 2.53324H20.0605C19.8043 2.53324 19.5586 2.6383 19.3774 2.82531C19.1963 3.01231 19.0945 3.26595 19.0945 3.53042V6.10911L13.9823 0.830067ZM2.67226 26.4654V13.915L13.2984 2.94607L23.9246 13.915V26.4654H17.1625V18.488C17.1625 18.2236 17.0607 17.9699 16.8795 17.7829C16.6984 17.5959 16.4527 17.4909 16.1965 17.4909H10.4004C10.1442 17.4909 9.89846 17.5959 9.7173 17.7829C9.53613 17.9699 9.43436 18.2236 9.43436 18.488V26.4654H2.67226Z" fill="black" stroke="black" stroke-width="0.5"/>
</svg>
