<svg width="32" height="29" viewBox="0 0 32 29" fill="none" xmlns="http://www.w3.org/2000/svg">
<path d="M23.0408 0.987061C20.3931 0.987061 17.8519 2.21961 16.1933 4.16735C14.5346 2.21961 11.9935 0.987061 9.34575 0.987061C4.659 0.987061 0.976562 4.6695 0.976562 9.35625C0.976562 15.1082 6.15024 19.7949 13.9868 26.9163L16.1933 28.9097L18.3997 26.9011C26.2363 19.7949 31.41 15.1082 31.41 9.35625C31.41 4.6695 27.7275 0.987061 23.0408 0.987061ZM16.3454 24.649L16.1933 24.8012L16.0411 24.649C8.79795 18.0906 4.0199 13.7539 4.0199 9.35625C4.0199 6.31291 6.30241 4.0304 9.34575 4.0304C11.6891 4.0304 13.9716 5.53686 14.7781 7.62154H17.6236C18.4149 5.53686 20.6974 4.0304 23.0408 4.0304C26.0841 4.0304 28.3666 6.31291 28.3666 9.35625C28.3666 13.7539 23.5886 18.0906 16.3454 24.649Z" fill="black"/>
</svg>
